<svg width="17" height="16" viewBox="0 0 17 16" fill="none" xmlns="http://www.w3.org/2000/svg">
<path d="M16.017 5.90782C15.9643 5.74652 15.8261 5.6313 15.6582 5.60496L10.6545 4.8939L8.40278 0.3675C8.32707 0.216071 8.17235 0.120605 8.00446 0.120605C7.83657 0.120605 7.68185 0.216071 7.60613 0.370792L5.38408 4.91036L0.380347 5.65434C0.212459 5.68068 0.0741979 5.79589 0.0215271 5.9572C-0.0311438 6.1185 0.0149432 6.29627 0.136745 6.41149L3.76774 9.93056L2.9283 14.9145C2.89867 15.0824 2.9678 15.2503 3.10607 15.3491C3.18178 15.405 3.27395 15.4347 3.36613 15.4347C3.43855 15.4347 3.50768 15.4182 3.57352 15.382L8.04067 13.0151L12.521 15.3557C12.5868 15.3886 12.656 15.405 12.7251 15.405C12.9687 15.405 13.1695 15.2042 13.1695 14.9606C13.1695 14.9244 13.1662 14.8915 13.1563 14.8586L12.2906 9.90422L15.8985 6.3654C16.0269 6.24689 16.0697 6.06912 16.017 5.90782Z" fill="#FB7185"/>
</svg>
